<svg xmlns="http://www.w3.org/2000/svg" xmlns:xlink="http://www.w3.org/1999/xlink" width="500" zoomAndPan="magnify" viewBox="0 0 375 374.999991" height="500" preserveAspectRatio="xMidYMid meet" version="1.0"><defs><clipPath id="de24bdceb4"><path d="M 37.640625 4.5 L 58 4.5 L 58 25 L 37.640625 25 Z M 37.640625 4.5 " clip-rule="nonzero"/></clipPath></defs><path fill="#ffffff" d="M 135.484375 296.359375 C 115.644531 276.527344 115.644531 204.023438 135.484375 184.191406 C 138.332031 181.351562 141.957031 178.757812 146.203125 176.421875 C 138.457031 179.625 132.027344 183.488281 127.539062 187.976562 C 107.699219 207.804688 107.699219 280.308594 127.539062 300.140625 C 153.109375 325.699219 241.316406 330.902344 279.089844 309.753906 C 238.09375 326.359375 159.398438 320.261719 135.484375 296.359375 " fill-opacity="1" fill-rule="nonzero"/><path fill="#ffffff" d="M 306.074219 308.023438 C 276.4375 344.6875 150.78125 341.355469 117.433594 308.023438 C 94.546875 285.148438 94.546875 201.488281 117.433594 178.613281 C 150.78125 145.28125 276.4375 141.949219 306.074219 178.613281 C 326.421875 203.777344 326.421875 282.859375 306.074219 308.023438 Z M 87.128906 301.886719 C 81.851562 301.886719 77.574219 297.609375 77.574219 292.332031 C 77.574219 287.058594 81.851562 282.785156 87.128906 282.785156 C 92.410156 282.785156 96.6875 287.058594 96.6875 292.332031 C 96.6875 297.609375 92.410156 301.886719 87.128906 301.886719 Z M 84.601562 257.433594 C 89.878906 257.433594 94.15625 261.710938 94.15625 266.984375 C 94.15625 272.265625 89.878906 276.539062 84.601562 276.539062 C 79.320312 276.539062 75.042969 272.265625 75.042969 266.984375 C 75.042969 261.710938 79.320312 257.433594 84.601562 257.433594 Z M 312.535156 175.15625 C 276.058594 130.039062 121.433594 134.136719 80.398438 175.15625 C 52.234375 203.304688 52.234375 306.253906 80.398438 334.40625 C 121.433594 375.417969 276.058594 379.519531 312.535156 334.40625 C 337.570312 303.4375 337.570312 206.121094 312.535156 175.15625 " fill-opacity="1" fill-rule="nonzero"/><path fill="#ffffff" d="M 178.832031 145.542969 L 255.085938 74.367188 L 183.875 150.582031 Z M 178.832031 145.542969 " fill-opacity="1" fill-rule="nonzero"/><path fill="#ffffff" d="M 178.832031 150.582031 L 47.519531 14.296875 L 183.875 145.542969 Z M 178.832031 150.582031 " fill-opacity="1" fill-rule="nonzero"/><path fill="#ffffff" d="M 264.882812 74.367188 C 264.882812 79.773438 260.496094 84.15625 255.085938 84.15625 C 249.675781 84.15625 245.292969 79.773438 245.292969 74.367188 C 245.292969 68.960938 249.675781 64.578125 255.085938 64.578125 C 260.496094 64.578125 264.882812 68.960938 264.882812 74.367188 " fill-opacity="1" fill-rule="nonzero"/><g clip-path="url(#de24bdceb4)"><path fill="#ffffff" d="M 57.316406 14.296875 C 57.316406 19.703125 52.929688 24.085938 47.519531 24.085938 C 42.113281 24.085938 37.726562 19.703125 37.726562 14.296875 C 37.726562 8.886719 42.113281 4.507812 47.519531 4.507812 C 52.929688 4.507812 57.316406 8.886719 57.316406 14.296875 " fill-opacity="1" fill-rule="nonzero"/></g></svg>